# xmcd
#
# Track frame offsets:
#  150
#  34080
#  63574
#  94464
#  169078
#  202705
#  235171
#  258892
#  271974
#
# Disc length: 3848 seconds
#
# Revision: 0
# Processed by: cddbd v1.5.1PL0 Copyright (c) Steve Scherf et al.
# Submitted via: Collectorz.com Music Collector 6.9
#
DISCID=750f0609
DTITLE=mark knopfler - Zenith, Lille, France, Jne 5th 2005 - Disc 2
DYEAR=2005
DGENRE=
TTITLE0=Song For Sonny Liston
TTITLE1=Speedway At Nazareth
TTITLE2=Telegraph Road
TTITLE3=Brothers In Arms
TTITLE4=Money For Nothing
TTITLE5=So Far Away
TTITLE6=The Mist Covered Mountains (Local Hero)
TTITLE7=Boom, Like That
TTITLE8=Wild Theme (Local Hero)
EXTD=
EXTT0=
EXTT1=
EXTT2=
EXTT3=
EXTT4=
EXTT5=
EXTT6=
EXTT7=
EXTT8=
PLAYORDER=
